<svg width="20" height="21" viewBox="0 0 20 21" fill="none" xmlns="http://www.w3.org/2000/svg">
<path d="M4.16667 19.2126C3.70833 19.2126 3.31597 19.0494 2.98958 18.723C2.66319 18.3966 2.5 18.0042 2.5 17.5459L2.5 5.87923C2.5 5.4209 2.66319 5.02854 2.98958 4.70215C3.31597 4.37576 3.70833 4.21257 4.16667 4.21257H5V3.37923C5 3.14312 5.07986 2.9452 5.23958 2.78548C5.39931 2.62576 5.59722 2.5459 5.83333 2.5459C6.06944 2.5459 6.26736 2.62576 6.42708 2.78548C6.58681 2.9452 6.66667 3.14312 6.66667 3.37923V4.21257L13.3333 4.21257V3.37923C13.3333 3.14312 13.4132 2.9452 13.5729 2.78548C13.7326 2.62576 13.9306 2.5459 14.1667 2.5459C14.4028 2.5459 14.6007 2.62576 14.7604 2.78548C14.9201 2.9452 15 3.14312 15 3.37923V4.21257H15.8333C16.2917 4.21257 16.684 4.37576 17.0104 4.70215C17.3368 5.02854 17.5 5.4209 17.5 5.87923V17.5459C17.5 18.0042 17.3368 18.3966 17.0104 18.723C16.684 19.0494 16.2917 19.2126 15.8333 19.2126L4.16667 19.2126ZM4.16667 17.5459H15.8333V9.21257L4.16667 9.21257L4.16667 17.5459ZM4.16667 7.5459L15.8333 7.5459V5.87923L4.16667 5.87923L4.16667 7.5459ZM10 12.5459C9.76389 12.5459 9.56597 12.466 9.40625 12.3063C9.24653 12.1466 9.16667 11.9487 9.16667 11.7126C9.16667 11.4765 9.24653 11.2785 9.40625 11.1188C9.56597 10.9591 9.76389 10.8792 10 10.8792C10.2361 10.8792 10.434 10.9591 10.5937 11.1188C10.7535 11.2785 10.8333 11.4765 10.8333 11.7126C10.8333 11.9487 10.7535 12.1466 10.5937 12.3063C10.434 12.466 10.2361 12.5459 10 12.5459ZM6.66667 12.5459C6.43056 12.5459 6.23264 12.466 6.07292 12.3063C5.91319 12.1466 5.83333 11.9487 5.83333 11.7126C5.83333 11.4765 5.91319 11.2785 6.07292 11.1188C6.23264 10.9591 6.43056 10.8792 6.66667 10.8792C6.90278 10.8792 7.10069 10.9591 7.26042 11.1188C7.42014 11.2785 7.5 11.4765 7.5 11.7126C7.5 11.9487 7.42014 12.1466 7.26042 12.3063C7.10069 12.466 6.90278 12.5459 6.66667 12.5459ZM13.3333 12.5459C13.0972 12.5459 12.8993 12.466 12.7396 12.3063C12.5799 12.1466 12.5 11.9487 12.5 11.7126C12.5 11.4765 12.5799 11.2785 12.7396 11.1188C12.8993 10.9591 13.0972 10.8792 13.3333 10.8792C13.5694 10.8792 13.7674 10.9591 13.9271 11.1188C14.0868 11.2785 14.1667 11.4765 14.1667 11.7126C14.1667 11.9487 14.0868 12.1466 13.9271 12.3063C13.7674 12.466 13.5694 12.5459 13.3333 12.5459ZM10 15.8792C9.76389 15.8792 9.56597 15.7994 9.40625 15.6396C9.24653 15.4799 9.16667 15.282 9.16667 15.0459C9.16667 14.8098 9.24653 14.6119 9.40625 14.4521C9.56597 14.2924 9.76389 14.2126 10 14.2126C10.2361 14.2126 10.434 14.2924 10.5937 14.4521C10.7535 14.6119 10.8333 14.8098 10.8333 15.0459C10.8333 15.282 10.7535 15.4799 10.5937 15.6396C10.434 15.7994 10.2361 15.8792 10 15.8792ZM6.66667 15.8792C6.43056 15.8792 6.23264 15.7994 6.07292 15.6396C5.91319 15.4799 5.83333 15.282 5.83333 15.0459C5.83333 14.8098 5.91319 14.6119 6.07292 14.4521C6.23264 14.2924 6.43056 14.2126 6.66667 14.2126C6.90278 14.2126 7.10069 14.2924 7.26042 14.4521C7.42014 14.6119 7.5 14.8098 7.5 15.0459C7.5 15.282 7.42014 15.4799 7.26042 15.6396C7.10069 15.7994 6.90278 15.8792 6.66667 15.8792ZM13.3333 15.8792C13.0972 15.8792 12.8993 15.7994 12.7396 15.6396C12.5799 15.4799 12.5 15.282 12.5 15.0459C12.5 14.8098 12.5799 14.6119 12.7396 14.4521C12.8993 14.2924 13.0972 14.2126 13.3333 14.2126C13.5694 14.2126 13.7674 14.2924 13.9271 14.4521C14.0868 14.6119 14.1667 14.8098 14.1667 15.0459C14.1667 15.282 14.0868 15.4799 13.9271 15.6396C13.7674 15.7994 13.5694 15.8792 13.3333 15.8792Z" fill="black" fill-opacity="0.5"/>
</svg>
