<svg width="12" height="12" viewBox="0 0 12 12" fill="none" xmlns="http://www.w3.org/2000/svg">
<path d="M6 1.75C5.22917 1.75 4.51823 1.9401 3.86719 2.32031C3.21615 2.70052 2.70052 3.21615 2.32031 3.86719C1.9401 4.51823 1.75 5.22917 1.75 6C1.75 6.77083 1.9401 7.48177 2.32031 8.13281C2.70052 8.78385 3.21615 9.29948 3.86719 9.67969C4.51823 10.0599 5.22917 10.25 6 10.25C6.77083 10.25 7.48177 10.0599 8.13281 9.67969C8.78385 9.29948 9.29948 8.78385 9.67969 8.13281C10.0599 7.48177 10.25 6.77083 10.25 6C10.25 5.22917 10.0599 4.51823 9.67969 3.86719C9.29948 3.21615 8.78385 2.70052 8.13281 2.32031C7.48177 1.9401 6.77083 1.75 6 1.75ZM12 6C12 7.08854 11.7318 8.09245 11.1953 9.01172C10.6589 9.93099 9.93099 10.6589 9.01172 11.1953C8.09245 11.7318 7.08854 12 6 12C4.91146 12 3.90755 11.7318 2.98828 11.1953C2.06901 10.6589 1.34115 9.93099 0.804688 9.01172C0.268229 8.09245 0 7.08854 0 6C0 4.91146 0.268229 3.90755 0.804688 2.98828C1.34115 2.06901 2.06901 1.34115 2.98828 0.804688C3.90755 0.268229 4.91146 0 6 0C7.08854 0 8.09245 0.268229 9.01172 0.804688C9.93099 1.34115 10.6589 2.06901 11.1953 2.98828C11.7318 3.90755 12 4.91146 12 6Z" fill="#666666"/>
</svg>
