<svg width="20" height="21" viewBox="0 0 20 21" fill="none" xmlns="http://www.w3.org/2000/svg">
<mask id="mask0_276_60395" style="mask-type:alpha" maskUnits="userSpaceOnUse" x="0" y="0" width="20" height="21">
<rect y="0.878906" width="20" height="20" fill="#D9D9D9"/>
</mask>
<g mask="url(#mask0_276_60395)">
<path d="M10.0013 12.0469L12.418 14.4635C12.5707 14.6163 12.7652 14.6927 13.0013 14.6927C13.2374 14.6927 13.4319 14.6163 13.5846 14.4635C13.7374 14.3108 13.8138 14.1163 13.8138 13.8802C13.8138 13.6441 13.7374 13.4497 13.5846 13.2969L11.168 10.8802L13.5846 8.46354C13.7374 8.31076 13.8138 8.11632 13.8138 7.88021C13.8138 7.6441 13.7374 7.44965 13.5846 7.29688C13.4319 7.1441 13.2374 7.06771 13.0013 7.06771C12.7652 7.06771 12.5707 7.1441 12.418 7.29688L10.0013 9.71354L7.58464 7.29688C7.43186 7.1441 7.23741 7.06771 7.0013 7.06771C6.76519 7.06771 6.57075 7.1441 6.41797 7.29688C6.26519 7.44965 6.1888 7.6441 6.1888 7.88021C6.1888 8.11632 6.26519 8.31076 6.41797 8.46354L8.83464 10.8802L6.41797 13.2969C6.26519 13.4497 6.1888 13.6441 6.1888 13.8802C6.1888 14.1163 6.26519 14.3108 6.41797 14.4635C6.57075 14.6163 6.76519 14.6927 7.0013 14.6927C7.23741 14.6927 7.43186 14.6163 7.58464 14.4635L10.0013 12.0469ZM10.0013 19.2135C8.84852 19.2135 7.76519 18.9948 6.7513 18.5573C5.73741 18.1198 4.85547 17.526 4.10547 16.776C3.35547 16.026 2.76172 15.1441 2.32422 14.1302C1.88672 13.1163 1.66797 12.033 1.66797 10.8802C1.66797 9.72743 1.88672 8.6441 2.32422 7.63021C2.76172 6.61632 3.35547 5.73437 4.10547 4.98437C4.85547 4.23437 5.73741 3.64063 6.7513 3.20313C7.76519 2.76562 8.84852 2.54688 10.0013 2.54688C11.1541 2.54688 12.2374 2.76562 13.2513 3.20313C14.2652 3.64063 15.1471 4.23437 15.8971 4.98437C16.6471 5.73437 17.2409 6.61632 17.6784 7.63021C18.1159 8.6441 18.3346 9.72743 18.3346 10.8802C18.3346 12.033 18.1159 13.1163 17.6784 14.1302C17.2409 15.1441 16.6471 16.026 15.8971 16.776C15.1471 17.526 14.2652 18.1198 13.2513 18.5573C12.2374 18.9948 11.1541 19.2135 10.0013 19.2135Z" fill="#2E81FF"/>
</g>
</svg>
