<svg width="158" height="32" viewBox="0 0 158 32" fill="none" xmlns="http://www.w3.org/2000/svg">
<path d="M8.08526 24.6812V1.53999H11.9988V24.6812H8.08526ZM0.326172 4.43266V0.859375H19.758V4.43266H0.326172Z" fill="#2E81FF"/>
<path d="M19.1992 24.6753V8.3403H22.9428V24.6753H19.1992ZM22.9428 15.589L21.6495 14.9423C21.6495 12.8778 22.1033 11.2102 23.0109 9.93977C23.9409 8.64658 25.3362 8 27.1967 8C28.0134 8 28.7507 8.14747 29.4086 8.4424C30.0666 8.73733 30.6792 9.21377 31.2463 9.87171L28.796 12.39C28.5012 12.0723 28.1721 11.8456 27.8092 11.7094C27.4461 11.5733 27.0264 11.5052 26.55 11.5052C25.5063 11.5052 24.6442 11.8341 23.9636 12.4921C23.283 13.1501 22.9428 14.1824 22.9428 15.589Z" fill="#2E81FF"/>
<path d="M39.4003 25.0157C37.9257 25.0157 36.587 24.6412 35.3846 23.8925C34.2048 23.1438 33.2633 22.1343 32.56 20.8638C31.8794 19.5705 31.5391 18.13 31.5391 16.5419C31.5391 14.9311 31.8794 13.4903 32.56 12.2199C33.2633 10.9266 34.2048 9.90573 35.3846 9.15706C36.587 8.38568 37.9257 8 39.4003 8C40.6481 8 41.7484 8.27224 42.7013 8.81674C43.6769 9.33856 44.4483 10.0645 45.0154 10.9947C45.5826 11.9249 45.8663 12.9799 45.8663 14.1597V18.856C45.8663 20.0356 45.5826 21.0906 45.0154 22.0208C44.471 22.951 43.7109 23.6884 42.7354 24.2329C41.7598 24.7546 40.6481 25.0157 39.4003 25.0157ZM40.0129 21.4764C41.3968 21.4764 42.5085 21.0112 43.348 20.081C44.2101 19.1508 44.6411 17.9597 44.6411 16.5078C44.6411 15.5323 44.4483 14.6702 44.0625 13.9215C43.6769 13.1727 43.1325 12.5942 42.429 12.1858C41.7484 11.7548 40.9431 11.5393 40.0129 11.5393C39.1053 11.5393 38.3 11.7548 37.5967 12.1858C36.916 12.5942 36.3715 13.1727 35.9632 13.9215C35.5775 14.6702 35.3846 15.5323 35.3846 16.5078C35.3846 17.4834 35.5775 18.3455 35.9632 19.0942C36.3715 19.8428 36.916 20.4327 37.5967 20.8638C38.3 21.2721 39.1053 21.4764 40.0129 21.4764ZM44.4029 24.6753V20.2853L45.0496 16.3037L44.4029 12.3561V8.3403H48.1463V24.6753H44.4029Z" fill="#2E81FF"/>
<path d="M57.8142 24.6787L50.3613 8.34375H54.5132L60.1963 21.6499H57.7461L63.4634 8.34375H67.4451L59.9923 24.6787H57.8142Z" fill="#2E81FF"/>
<path d="M76.7045 25.0157C75.071 25.0157 73.5963 24.6526 72.2805 23.9266C70.9872 23.1779 69.9549 22.157 69.1836 20.8638C68.4349 19.5705 68.0605 18.1186 68.0605 16.5078C68.0605 14.8969 68.4349 13.4564 69.1836 12.1858C69.9322 10.8927 70.942 9.87171 72.2124 9.12302C73.5055 8.37434 74.9348 8 76.5004 8C78.0204 8 79.359 8.35165 80.5159 9.05496C81.6958 9.75827 82.6146 10.7226 83.2725 11.9476C83.9532 13.1728 84.2934 14.568 84.2934 16.1334C84.2934 16.4057 84.2708 16.6893 84.2254 16.9843C84.2027 17.2564 84.1573 17.5627 84.0892 17.9031H70.6809V14.8403H82.1495L80.7543 16.0653C80.7089 15.0672 80.5159 14.2278 80.1757 13.5472C79.8353 12.8664 79.3475 12.3446 78.7123 11.9817C78.0998 11.6186 77.3397 11.4371 76.4323 11.4371C75.4794 11.4371 74.6512 11.6413 73.9479 12.0496C73.2446 12.4581 72.7002 13.0367 72.3144 13.7853C71.9288 14.5113 71.736 15.3847 71.736 16.4057C71.736 17.4267 71.9401 18.3228 72.3486 19.0942C72.7568 19.8655 73.3354 20.4668 74.0841 20.8978C74.8328 21.3062 75.6949 21.5103 76.6705 21.5103C77.51 21.5103 78.2813 21.3629 78.9846 21.0681C79.7106 20.7731 80.3231 20.3419 80.8224 19.7748L83.2045 22.1911C82.4105 23.1211 81.4462 23.8246 80.3119 24.301C79.1774 24.7773 77.9751 25.0157 76.7045 25.0157Z" fill="#2E81FF"/>
<path d="M87.293 24.6783V0.175781H91.0364V24.6783H87.293Z" fill="#2E81FF"/>
<path d="M95.2387 24.6812V8.34624H98.982V24.6812H95.2387ZM97.1103 5.35149C96.4751 5.35149 95.9419 5.13597 95.511 4.7049C95.1025 4.27384 94.8984 3.74068 94.8984 3.10544C94.8984 2.47018 95.1025 1.93702 95.511 1.50597C95.9419 1.0749 96.4751 0.859375 97.1103 0.859375C97.7684 0.859375 98.3014 1.0749 98.7099 1.50597C99.1182 1.93702 99.3224 2.47018 99.3224 3.10544C99.3224 3.74068 99.1182 4.27384 98.7099 4.7049C98.3014 5.13597 97.7684 5.35149 97.1103 5.35149Z" fill="#2E81FF"/>
<path d="M110.019 25.0186C108.545 25.0186 107.206 24.6441 106.004 23.8955C104.824 23.1468 103.882 22.1372 103.179 20.8668C102.499 19.5735 102.158 18.133 102.158 16.5448C102.158 14.934 102.499 13.4933 103.179 12.2229C103.882 10.9296 104.824 9.9087 106.004 9.16002C107.206 8.38865 108.545 8.00296 110.019 8.00296C111.267 8.00296 112.368 8.2752 113.321 8.8197C114.296 9.34152 115.068 10.0675 115.635 10.9977C116.201 11.9279 116.485 12.9828 116.485 14.1626V18.8589C116.485 20.0386 116.201 21.0935 115.635 22.0238C115.089 22.954 114.33 23.6914 113.354 24.2358C112.379 24.7576 111.267 25.0186 110.019 25.0186ZM110.632 21.4793C111.562 21.4793 112.368 21.2751 113.049 20.8668C113.752 20.4356 114.296 19.8458 114.681 19.0971C115.068 18.3485 115.261 17.4863 115.261 16.5107C115.261 15.5353 115.068 14.6731 114.681 13.9245C114.296 13.1756 113.752 12.5972 113.049 12.1888C112.368 11.7578 111.573 11.5423 110.666 11.5423C109.736 11.5423 108.919 11.7578 108.216 12.1888C107.535 12.5972 106.991 13.1756 106.582 13.9245C106.197 14.6731 106.004 15.5353 106.004 16.5107C106.004 17.4863 106.197 18.3485 106.582 19.0971C106.991 19.8458 107.535 20.4356 108.216 20.8668C108.919 21.2751 109.724 21.4793 110.632 21.4793ZM118.766 24.6783H115.022V20.2882L115.669 16.3066L115.022 12.359V0.175781H118.766V24.6783Z" fill="#2E81FF"/>
<path d="M129.729 31.8219C128.006 31.8219 126.495 31.5042 125.202 30.869C123.909 30.2564 122.866 29.3829 122.071 28.2486L124.522 25.7983C125.18 26.6151 125.929 27.2276 126.768 27.6361C127.607 28.0443 128.618 28.2486 129.796 28.2486C131.272 28.2486 132.439 27.8628 133.303 27.0914C134.165 26.3428 134.596 25.3105 134.596 23.9947V19.979L135.243 16.3716L134.596 12.7304V8.3403H138.339V23.9947C138.339 25.5601 137.975 26.9213 137.251 28.0785C136.524 29.2581 135.515 30.1769 134.221 30.835C132.928 31.4929 131.431 31.8219 129.729 31.8219ZM129.56 24.3349C128.107 24.3349 126.791 23.9833 125.611 23.28C124.455 22.554 123.536 21.5671 122.855 20.3192C122.197 19.0715 121.867 17.6762 121.867 16.1334C121.867 14.5907 122.197 13.2068 122.855 11.9817C123.536 10.7565 124.455 9.79231 125.611 9.089C126.791 8.36299 128.107 8 129.56 8C130.853 8 131.987 8.26089 132.962 8.78272C133.938 9.30452 134.697 10.0305 135.243 10.9607C135.786 11.8683 136.059 12.9345 136.059 14.1597V18.1754C136.059 19.3777 135.775 20.4441 135.208 21.3743C134.663 22.3044 133.904 23.0305 132.928 23.5523C131.953 24.074 130.83 24.3349 129.56 24.3349ZM130.307 20.7958C131.215 20.7958 132.008 20.603 132.689 20.2172C133.37 19.8316 133.892 19.2984 134.255 18.6178C134.64 17.9145 134.834 17.0977 134.834 16.1675C134.834 15.2373 134.64 14.4318 134.255 13.7512C133.892 13.0479 133.37 12.5035 132.689 12.1177C132.008 11.7321 131.215 11.5393 130.307 11.5393C129.4 11.5393 128.595 11.7321 127.891 12.1177C127.21 12.5035 126.678 13.0479 126.291 13.7512C125.906 14.4318 125.713 15.2373 125.713 16.1675C125.713 17.0751 125.906 17.8804 126.291 18.5837C126.678 19.287 127.21 19.8316 127.891 20.2172C128.595 20.603 129.4 20.7958 130.307 20.7958Z" fill="#2E81FF"/>
<path d="M150.086 25.0157C148.451 25.0157 146.977 24.6526 145.661 23.9266C144.367 23.1779 143.335 22.157 142.565 20.8638C141.815 19.5705 141.441 18.1186 141.441 16.5078C141.441 14.8969 141.815 13.4564 142.565 12.1858C143.312 10.8927 144.323 9.87171 145.593 9.12302C146.886 8.37434 148.316 8 149.88 8C151.401 8 152.74 8.35165 153.896 9.05496C155.076 9.75827 155.995 10.7226 156.653 11.9476C157.334 13.1728 157.674 14.568 157.674 16.1334C157.674 16.4057 157.651 16.6893 157.605 16.9843C157.584 17.2564 157.538 17.5627 157.47 17.9031H144.062V14.8403H155.53L154.134 16.0653C154.089 15.0672 153.896 14.2278 153.556 13.5472C153.215 12.8664 152.729 12.3446 152.092 11.9817C151.48 11.6186 150.721 11.4371 149.813 11.4371C148.86 11.4371 148.032 11.6413 147.328 12.0496C146.625 12.4581 146.081 13.0367 145.694 13.7853C145.309 14.5113 145.116 15.3847 145.116 16.4057C145.116 17.4267 145.32 18.3228 145.728 19.0942C146.137 19.8655 146.716 20.4668 147.464 20.8978C148.213 21.3062 149.075 21.5103 150.051 21.5103C150.89 21.5103 151.661 21.3629 152.365 21.0681C153.091 20.7731 153.703 20.3419 154.203 19.7748L156.585 22.1911C155.791 23.1211 154.827 23.8246 153.692 24.301C152.557 24.7773 151.356 25.0157 150.086 25.0157Z" fill="#2E81FF"/>
</svg>
