<svg width="40" height="41" viewBox="0 0 40 41" fill="none" xmlns="http://www.w3.org/2000/svg">
<path d="M17.7878 20.8841L23.0629 26.0521C23.2423 26.2279 23.329 26.4329 23.3231 26.6673C23.3171 26.9017 23.2244 27.1068 23.045 27.2826C22.8655 27.4583 22.6562 27.5462 22.417 27.5462C22.1777 27.5462 21.9684 27.4583 21.789 27.2826L16.2627 21.8861C16.1191 21.7454 16.0115 21.5872 15.9397 21.4114C15.8679 21.2357 15.832 21.0599 15.832 20.8841C15.832 20.7083 15.8679 20.5325 15.9397 20.3567C16.0115 20.181 16.1191 20.0228 16.2627 19.8821L21.789 14.4681C21.9684 14.2923 22.1807 14.2073 22.4259 14.2132C22.6711 14.219 22.8835 14.3099 23.0629 14.4856C23.2423 14.6614 23.332 14.8665 23.332 15.1009C23.332 15.3352 23.2423 15.5403 23.0629 15.7161L17.7878 20.8841Z" fill="black"/>
</svg>
