<svg width="24" height="25" viewBox="0 0 24 25" fill="none" xmlns="http://www.w3.org/2000/svg">
<path d="M14.6531 12.8844L8.32297 19.0859C8.10766 19.2969 8.00359 19.543 8.01077 19.8242C8.01794 20.1055 8.12919 20.3516 8.3445 20.5625C8.55981 20.7734 8.811 20.8789 9.09809 20.8789C9.38517 20.8789 9.63636 20.7734 9.85167 20.5625L16.4833 14.0867C16.6555 13.9179 16.7847 13.7281 16.8708 13.5172C16.9569 13.3062 17 13.0953 17 12.8844C17 12.6734 16.9569 12.4625 16.8708 12.2515C16.7847 12.0406 16.6555 11.8508 16.4833 11.682L9.85167 5.18511C9.63636 4.97417 9.38158 4.87222 9.08732 4.87925C8.79306 4.88628 8.53828 4.99526 8.32297 5.2062C8.10766 5.41714 8 5.66323 8 5.94448C8 6.22574 8.10766 6.47183 8.32297 6.68277L14.6531 12.8844Z" fill="black"/>
</svg>
