<svg width="19" height="19" viewBox="0 0 19 19" fill="none" xmlns="http://www.w3.org/2000/svg">
<path d="M7.76061 5.36911C7.76061 6.92995 7.24345 8.19528 6.09023 8.19528C4.93714 8.19528 4.41992 6.92995 4.41992 5.36911C4.41992 3.80827 4.93714 2.54297 6.09023 2.54297C7.24345 2.54297 7.76061 3.80827 7.76061 5.36911Z" fill="#2E81FF"/>
<path d="M14.0927 5.36911C14.0927 6.92995 13.5754 8.19528 12.4223 8.19528C11.2691 8.19528 10.752 6.92995 10.752 5.36911C10.752 3.80827 11.2691 2.54297 12.4223 2.54297C13.5754 2.54297 14.0927 3.80827 14.0927 5.36911Z" fill="#2E81FF"/>
<path d="M2.23801 9.43065C2.73286 8.99112 3.39897 9.1743 3.72579 9.83983C4.91229 12.2559 6.9463 13.8448 9.25594 13.8448C11.5654 13.8448 13.5994 12.2559 14.786 9.83983C15.1128 9.17432 15.7789 8.99112 16.2738 9.43065C16.7685 9.87022 16.9048 10.766 16.578 11.4315C15.0108 14.6229 12.3169 16.7331 9.25594 16.7331C6.19484 16.7331 3.50088 14.6229 1.93376 11.4315C1.60693 10.766 1.74315 9.87022 2.23801 9.43065Z" fill="#2E81FF"/>
</svg>
