<svg width="20" height="21" viewBox="0 0 20 21" fill="none" xmlns="http://www.w3.org/2000/svg">
<rect x="0.5" y="0.878906" width="19" height="19" rx="3.5" stroke="#E0E0E0"/>
<path d="M8.50475 6.1113C8.50475 7.67214 7.9876 8.93747 6.83437 8.93747C5.68128 8.93747 5.16406 7.67214 5.16406 6.1113C5.16406 4.55046 5.68128 3.28516 6.83437 3.28516C7.9876 3.28516 8.50475 4.55046 8.50475 6.1113Z" fill="#2E81FF"/>
<path d="M14.8368 6.1113C14.8368 7.67214 14.3195 8.93747 13.1665 8.93747C12.0132 8.93747 11.4961 7.67214 11.4961 6.1113C11.4961 4.55046 12.0132 3.28516 13.1665 3.28516C14.3195 3.28516 14.8368 4.55046 14.8368 6.1113Z" fill="#2E81FF"/>
<path d="M2.98215 10.1728C3.477 9.73331 4.14311 9.91649 4.46993 10.582C5.65644 12.9981 7.69044 14.587 10.0001 14.587C12.3096 14.587 14.3436 12.9981 15.5301 10.582C15.8569 9.91651 16.5231 9.73331 17.018 10.1728C17.5127 10.6124 17.6489 11.5081 17.3221 12.1737C15.755 15.365 13.061 17.4753 10.0001 17.4753C6.93898 17.4753 4.24502 15.365 2.6779 12.1737C2.35107 11.5081 2.48729 10.6124 2.98215 10.1728Z" fill="#2E81FF"/>
</svg>
