<svg width="18" height="19" viewBox="0 0 18 19" fill="none" xmlns="http://www.w3.org/2000/svg">
<path d="M9 13.6289C9.2125 13.6289 9.39063 13.557 9.53438 13.4133C9.67813 13.2695 9.75 13.0914 9.75 12.8789C9.75 12.6664 9.67813 12.4883 9.53438 12.3445C9.39063 12.2008 9.2125 12.1289 9 12.1289C8.7875 12.1289 8.60938 12.2008 8.46563 12.3445C8.32188 12.4883 8.25 12.6664 8.25 12.8789C8.25 13.0914 8.32188 13.2695 8.46563 13.4133C8.60938 13.557 8.7875 13.6289 9 13.6289ZM9 10.6289C9.2125 10.6289 9.39063 10.557 9.53438 10.4133C9.67813 10.2695 9.75 10.0914 9.75 9.87891V6.87891C9.75 6.66641 9.67813 6.48828 9.53438 6.34453C9.39063 6.20078 9.2125 6.12891 9 6.12891C8.7875 6.12891 8.60938 6.20078 8.46563 6.34453C8.32188 6.48828 8.25 6.66641 8.25 6.87891V9.87891C8.25 10.0914 8.32188 10.2695 8.46563 10.4133C8.60938 10.557 8.7875 10.6289 9 10.6289ZM9 17.3789C7.9625 17.3789 6.9875 17.182 6.075 16.7883C5.1625 16.3945 4.36875 15.8602 3.69375 15.1852C3.01875 14.5102 2.48438 13.7164 2.09063 12.8039C1.69687 11.8914 1.5 10.9164 1.5 9.87891C1.5 8.84141 1.69687 7.86641 2.09063 6.95391C2.48438 6.04141 3.01875 5.24766 3.69375 4.57266C4.36875 3.89766 5.1625 3.36328 6.075 2.96953C6.9875 2.57578 7.9625 2.37891 9 2.37891C10.0375 2.37891 11.0125 2.57578 11.925 2.96953C12.8375 3.36328 13.6313 3.89766 14.3063 4.57266C14.9813 5.24766 15.5156 6.04141 15.9094 6.95391C16.3031 7.86641 16.5 8.84141 16.5 9.87891C16.5 10.9164 16.3031 11.8914 15.9094 12.8039C15.5156 13.7164 14.9813 14.5102 14.3063 15.1852C13.6313 15.8602 12.8375 16.3945 11.925 16.7883C11.0125 17.182 10.0375 17.3789 9 17.3789ZM9 15.8789C10.675 15.8789 12.0938 15.2977 13.2563 14.1352C14.4187 12.9727 15 11.5539 15 9.87891C15 8.20391 14.4187 6.78516 13.2563 5.62266C12.0938 4.46016 10.675 3.87891 9 3.87891C7.325 3.87891 5.90625 4.46016 4.74375 5.62266C3.58125 6.78516 3 8.20391 3 9.87891C3 11.5539 3.58125 12.9727 4.74375 14.1352C5.90625 15.2977 7.325 15.8789 9 15.8789Z" fill="#E71616"/>
</svg>
