<svg width="120" height="22" viewBox="0 0 120 22" fill="none" xmlns="http://www.w3.org/2000/svg">
<path d="M113.786 10.9193C113.786 11.7075 113.435 12.3464 112.652 12.3464C111.869 12.3464 111.518 11.7075 111.518 10.9193C111.518 10.1311 111.869 9.49219 112.652 9.49219C113.435 9.49219 113.786 10.1311 113.786 10.9193Z" fill="#F5F5F5"/>
<path d="M118.364 10.9193C118.364 11.7075 118.013 12.3464 117.23 12.3464C116.447 12.3464 116.096 11.7075 116.096 10.9193C116.096 10.1311 116.447 9.49219 117.23 9.49219C118.013 9.49219 118.364 10.1311 118.364 10.9193Z" fill="#F5F5F5"/>
<path d="M110.142 13.3786C110.478 13.1567 110.93 13.2492 111.152 13.5852C111.958 14.8053 113.339 15.6076 114.908 15.6076C116.476 15.6076 117.858 14.8053 118.663 13.5852C118.885 13.2492 119.338 13.1567 119.674 13.3786C120.01 13.6006 120.102 14.0529 119.88 14.389C118.816 16.0005 116.987 17.0661 114.908 17.0661C112.829 17.0661 111 16.0005 109.935 14.389C109.713 14.0529 109.806 13.6006 110.142 13.3786Z" fill="#F5F5F5"/>
<path d="M5.1727 17.1194V1.69202H7.78169V17.1194H5.1727ZM0 3.62046V1.23828H12.9545V3.62046H0Z" fill="#F5F5F5"/>
<path d="M12.582 17.1129V6.22296H15.0777V17.1129H12.582ZM15.0777 11.0554L14.2155 10.6243C14.2155 9.24796 14.5181 8.13621 15.1231 7.28927C15.7431 6.42714 16.6733 5.99609 17.9136 5.99609C18.4581 5.99609 18.9496 6.0944 19.3882 6.29103C19.8269 6.48765 20.2353 6.80527 20.6134 7.2439L18.9799 8.92276C18.7833 8.71097 18.5639 8.55979 18.322 8.46903C18.0799 8.37826 17.8001 8.33287 17.4825 8.33287C16.7868 8.33287 16.212 8.55218 15.7583 8.99078C15.3045 9.42949 15.0777 10.1177 15.0777 11.0554Z" fill="#F5F5F5"/>
<path d="M26.0494 17.3398C25.0663 17.3398 24.1739 17.0902 23.3723 16.591C22.5858 16.0919 21.9581 15.4189 21.4892 14.5719C21.0355 13.7097 20.8086 12.7494 20.8086 11.6906C20.8086 10.6168 21.0355 9.6563 21.4892 8.80935C21.9581 7.94716 22.5858 7.26658 23.3723 6.76746C24.1739 6.25322 25.0663 5.99609 26.0494 5.99609C26.8812 5.99609 27.6148 6.17759 28.2501 6.54058C28.9005 6.88846 29.4147 7.37245 29.7928 7.99255C30.1709 8.61269 30.36 9.31598 30.36 10.1025V13.2334C30.36 14.0198 30.1709 14.7231 29.7928 15.3432C29.4298 15.9634 28.9231 16.455 28.2728 16.818C27.6224 17.1658 26.8812 17.3398 26.0494 17.3398ZM26.4578 14.9803C27.3804 14.9803 28.1215 14.6702 28.6812 14.0501C29.2559 13.4299 29.5432 12.6359 29.5432 11.6679C29.5432 11.0176 29.4147 10.4429 29.1575 9.94374C28.9005 9.44451 28.5375 9.05891 28.0685 8.78661C27.6148 8.49928 27.0779 8.35562 26.4578 8.35562C25.8528 8.35562 25.3159 8.49928 24.847 8.78661C24.3932 9.05891 24.0302 9.44451 23.758 9.94374C23.5008 10.4429 23.3723 11.0176 23.3723 11.6679C23.3723 12.3183 23.5008 12.893 23.758 13.3922C24.0302 13.8913 24.3932 14.2845 24.847 14.5719C25.3159 14.8441 25.8528 14.9803 26.4578 14.9803ZM29.3844 17.1129V14.1862L29.8155 11.5319L29.3844 8.90012V6.22296H31.88V17.1129H29.3844Z" fill="#F5F5F5"/>
<path d="M38.3259 17.1165L33.3574 6.22656H36.1253L39.9141 15.0973H38.2806L42.0921 6.22656H44.7465L39.778 17.1165H38.3259Z" fill="#F5F5F5"/>
<path d="M50.9188 17.3398C49.8298 17.3398 48.8467 17.0978 47.9695 16.6138C47.1073 16.1147 46.4192 15.434 45.9049 14.5719C45.4058 13.7097 45.1562 12.7418 45.1562 11.6679C45.1562 10.594 45.4058 9.63367 45.9049 8.78661C46.404 7.92453 47.0772 7.24389 47.9241 6.74477C48.7862 6.24565 49.7391 5.99609 50.7828 5.99609C51.7961 5.99609 52.6885 6.23052 53.4598 6.69939C54.2463 7.16827 54.8589 7.81112 55.2975 8.62782C55.7513 9.44462 55.9781 10.3747 55.9781 11.4183C55.9781 11.5999 55.963 11.7889 55.9327 11.9856C55.9176 12.167 55.8874 12.3712 55.842 12.5981H46.9032V10.5563H54.5488L53.6187 11.373C53.5884 10.7075 53.4598 10.1479 53.233 9.69418C53.0061 9.24034 52.6809 8.8925 52.2574 8.65056C51.849 8.40851 51.3423 8.28749 50.7374 8.28749C50.1021 8.28749 49.55 8.42364 49.0812 8.69584C48.6123 8.96814 48.2493 9.35385 47.9922 9.85297C47.7351 10.337 47.6066 10.9192 47.6066 11.5999C47.6066 12.2805 47.7426 12.8779 48.0149 13.3922C48.2871 13.9064 48.6728 14.3073 49.1719 14.5946C49.671 14.8669 50.2458 15.0029 50.8962 15.0029C51.4558 15.0029 51.9701 14.9046 52.4389 14.7081C52.9229 14.5114 53.3313 14.224 53.6641 13.8459L55.2522 15.4568C54.7228 16.0768 54.0799 16.5458 53.3238 16.8633C52.5675 17.1809 51.7659 17.3398 50.9188 17.3398Z" fill="#F5F5F5"/>
<path d="M57.9785 17.1161V0.78125H60.4741V17.1161H57.9785Z" fill="#F5F5F5"/>
<path d="M63.2737 17.1194V6.2295H65.7693V17.1194H63.2737ZM64.5215 4.23301C64.098 4.23301 63.7425 4.08933 63.4552 3.80195C63.1829 3.51458 63.0469 3.15914 63.0469 2.73565C63.0469 2.31214 63.1829 1.95671 63.4552 1.66934C63.7425 1.38196 64.098 1.23828 64.5215 1.23828C64.9602 1.23828 65.3155 1.38196 65.5878 1.66934C65.86 1.95671 65.9962 2.31214 65.9962 2.73565C65.9962 3.15914 65.86 3.51458 65.5878 3.80195C65.3155 4.08933 64.9602 4.23301 64.5215 4.23301Z" fill="#F5F5F5"/>
<path d="M73.1275 17.3431C72.1444 17.3431 71.252 17.0934 70.4504 16.5943C69.6639 16.0952 69.0362 15.4221 68.5674 14.5752C68.1136 13.713 67.8867 12.7526 67.8867 11.6939C67.8867 10.62 68.1136 9.65955 68.5674 8.8126C69.0362 7.95041 69.6639 7.26982 70.4504 6.77071C71.252 6.25646 72.1444 5.99934 73.1275 5.99934C73.9594 5.99934 74.6929 6.18084 75.3287 6.54383C75.9785 6.89171 76.4933 7.3757 76.8709 7.9958C77.2486 8.61594 77.438 9.31923 77.438 10.1058V13.2366C77.438 14.0231 77.2486 14.7264 76.8709 15.3465C76.5074 15.9666 76.0013 16.4582 75.3505 16.8212C74.7005 17.169 73.9594 17.3431 73.1275 17.3431ZM73.5359 14.9835C74.156 14.9835 74.6929 14.8474 75.147 14.5752C75.6161 14.2877 75.9785 13.8945 76.2353 13.3954C76.4933 12.8963 76.6217 12.3215 76.6217 11.6711C76.6217 11.0209 76.4933 10.4461 76.2353 9.94699C75.9785 9.44776 75.6161 9.06216 75.147 8.78985C74.6929 8.50253 74.1635 8.35887 73.5585 8.35887C72.9385 8.35887 72.394 8.50253 71.925 8.78985C71.4713 9.06216 71.1083 9.44776 70.8361 9.94699C70.579 10.4461 70.4504 11.0209 70.4504 11.6711C70.4504 12.3215 70.579 12.8963 70.8361 13.3954C71.1083 13.8945 71.4713 14.2877 71.925 14.5752C72.394 14.8474 72.9309 14.9835 73.5359 14.9835ZM78.9584 17.1161H76.4628V14.1895L76.8938 11.5351L76.4628 8.90337V0.78125H78.9584V17.1161Z" fill="#F5F5F5"/>
<path d="M86.2688 21.8772C85.1195 21.8772 84.1128 21.6655 83.2508 21.242C82.3889 20.8336 81.6934 20.2513 81.1634 19.4951L82.797 17.8616C83.2356 18.4061 83.7352 18.8144 84.2946 19.0867C84.854 19.3589 85.5277 19.4951 86.3134 19.4951C87.2973 19.4951 88.0755 19.2379 88.6512 18.7237C89.2259 18.2245 89.5132 17.5364 89.5132 16.6592V13.9821L89.9442 11.5771L89.5132 9.14968V6.22296H92.0088V16.6592C92.0088 17.7028 91.7661 18.6102 91.2828 19.3817C90.7985 20.1681 90.1259 20.7806 89.2629 21.2193C88.4009 21.6579 87.4029 21.8772 86.2688 21.8772ZM86.1556 16.886C85.187 16.886 84.3098 16.6515 83.5229 16.1827C82.7524 15.6987 82.1396 15.0408 81.6858 14.2089C81.2472 13.377 81.0273 12.4468 81.0273 11.4183C81.0273 10.3899 81.2472 9.46726 81.6858 8.65056C82.1396 7.83376 82.7524 7.19096 83.5229 6.72209C84.3098 6.23809 85.187 5.99609 86.1556 5.99609C87.0176 5.99609 87.774 6.17002 88.4238 6.5179C89.0746 6.86577 89.5807 7.34977 89.9442 7.96991C90.3066 8.57492 90.4883 9.28572 90.4883 10.1025V12.7796C90.4883 13.5812 90.299 14.2921 89.9213 14.9123C89.5578 15.5323 89.0517 16.0164 88.4009 16.3642C87.7512 16.7121 87.0024 16.886 86.1556 16.886ZM86.6541 14.5266C87.2592 14.5266 87.7882 14.398 88.242 14.1408C88.6958 13.8838 89.0441 13.5283 89.2857 13.0746C89.5426 12.6057 89.6721 12.0612 89.6721 11.4411C89.6721 10.8209 89.5426 10.284 89.2857 9.83022C89.0441 9.36136 88.6958 8.9984 88.242 8.74122C87.7882 8.48415 87.2592 8.35562 86.6541 8.35562C86.049 8.35562 85.5124 8.48415 85.0433 8.74122C84.5895 8.9984 84.2347 9.36136 83.9768 9.83022C83.7199 10.284 83.5915 10.8209 83.5915 11.4411C83.5915 12.0461 83.7199 12.583 83.9768 13.0518C84.2347 13.5207 84.5895 13.8838 85.0433 14.1408C85.5124 14.398 86.049 14.5266 86.6541 14.5266Z" fill="#F5F5F5"/>
<path d="M99.839 17.3398C98.7495 17.3398 97.7668 17.0978 96.8895 16.6138C96.0265 16.1147 95.3387 15.434 94.825 14.5719C94.3254 13.7097 94.0762 12.7418 94.0762 11.6679C94.0762 10.594 94.3254 9.63367 94.825 8.78661C95.3234 7.92453 95.9971 7.24389 96.8438 6.74477C97.7058 6.24565 98.6592 5.99609 99.7018 5.99609C100.716 5.99609 101.609 6.23052 102.379 6.69939C103.166 7.16827 103.779 7.81112 104.217 8.62782C104.671 9.44462 104.898 10.3747 104.898 11.4183C104.898 11.5999 104.882 11.7889 104.852 11.9856C104.838 12.167 104.807 12.3712 104.762 12.5981H95.823V10.5563H103.469L102.538 11.373C102.508 10.7075 102.379 10.1479 102.153 9.69418C101.925 9.24034 101.601 8.8925 101.177 8.65056C100.768 8.40851 100.262 8.28749 99.6572 8.28749C99.0216 8.28749 98.4698 8.42364 98.0008 8.69584C97.5317 8.96814 97.1693 9.35385 96.9113 9.85297C96.6545 10.337 96.526 10.9192 96.526 11.5999C96.526 12.2805 96.6621 12.8779 96.9342 13.3922C97.2063 13.9064 97.5926 14.3073 98.0911 14.5946C98.5906 14.8669 99.1653 15.0029 99.8161 15.0029C100.376 15.0029 100.889 14.9046 101.358 14.7081C101.843 14.5114 102.251 14.224 102.584 13.8459L104.172 15.4568C103.643 16.0768 103 16.5458 102.243 16.8633C101.487 17.1809 100.686 17.3398 99.839 17.3398Z" fill="#F5F5F5"/>
</svg>
